<svg width="44" height="36" viewBox="0 0 44 36" fill="none" xmlns="http://www.w3.org/2000/svg">
<path fill-rule="evenodd" clip-rule="evenodd" d="M0.667969 4.59994C0.667969 2.2067 2.60807 0.266602 5.0013 0.266602H39.0013C41.3945 0.266602 43.3346 2.2067 43.3346 4.59994V31.2666C43.3346 33.6598 41.3945 35.5999 39.0013 35.5999H5.0013C2.60807 35.5999 0.667969 33.6598 0.667969 31.2666V4.59994ZM5.0013 2.2666C3.71264 2.2666 2.66797 3.31127 2.66797 4.59994V31.2666C2.66797 32.5553 3.71264 33.5999 5.0013 33.5999H39.0013C40.29 33.5999 41.3346 32.5553 41.3346 31.2666V4.59994C41.3346 3.31127 40.29 2.2666 39.0013 2.2666H5.0013Z" fill="var(--primary)"/>
<ellipse cx="10.6693" cy="9.59993" rx="4.33333" ry="4.33333" fill="var(--primary)"/>
<path d="M6.33594 27.9336V25.9573C6.33594 25.5153 6.51153 25.0913 6.82409 24.7788L12.2122 19.3907C12.8413 18.7616 13.8536 18.7375 14.5118 19.3359L15.8432 20.5462C16.4948 21.1386 17.4947 21.1218 18.1261 20.508L27.8243 11.0791C28.4777 10.4439 29.5202 10.4512 30.1646 11.0956L37.8478 18.7788C38.1603 19.0913 38.3359 19.5153 38.3359 19.9573V27.9336C38.3359 28.8541 37.5898 29.6003 36.6693 29.6003H8.0026C7.08213 29.6003 6.33594 28.8541 6.33594 27.9336Z" fill="var(--primary)"/>
</svg>
