<svg width="28" height="21" viewBox="0 0 28 21" fill="none" xmlns="http://www.w3.org/2000/svg">
<path d="M20.3636 10.8174C18.0146 10.8175 16.0745 12.8117 16.0745 15.3174C16.0745 17.823 18.0146 19.8172 20.3636 19.8174C22.7127 19.8174 24.6536 17.8231 24.6536 15.3174C24.6536 12.8116 22.7127 10.8174 20.3636 10.8174Z" fill="#8A6E4E" stroke="#8A6E4E"/>
<path d="M24.5273 0.134602C25.5387 -0.265064 26.6932 0.256167 27.106 1.2988C27.5188 2.34144 27.0336 3.51065 26.0222 3.91032L25.2747 2.02246L24.5273 0.134602ZM18.7292 18.284L17.0129 19.2511C15.5921 16.6856 15.2637 12.817 16.2979 9.234C17.3606 5.55235 19.9198 1.95531 24.5273 0.134602L25.2747 2.02246L26.0222 3.91032C22.6772 5.23215 20.8653 7.78258 20.0941 10.4544C19.2945 13.2248 19.6696 15.9158 20.4454 17.3168L18.7292 18.284Z" fill="#8A6E4E"/>
<path d="M5.03646 10.8174C2.68745 10.8175 0.747398 12.8117 0.747398 15.3174C0.747398 17.823 2.68745 19.8172 5.03646 19.8174C7.3856 19.8174 9.3265 17.8231 9.3265 15.3174C9.3265 12.8116 7.3856 10.8174 5.03646 10.8174Z" fill="#8A6E4E" stroke="#8A6E4E"/>
<path d="M9.20015 0.134602C10.2115 -0.265064 11.3661 0.256167 11.7789 1.2988C12.1917 2.34144 11.7064 3.51065 10.695 3.91032L9.94759 2.02246L9.20015 0.134602ZM3.40204 18.284L1.68578 19.2511C0.264998 16.6856 -0.0634136 12.817 0.970766 9.234C2.03341 5.55235 4.59265 1.95531 9.20015 0.134602L9.94759 2.02246L10.695 3.91032C7.35001 5.23215 5.53814 7.78258 4.76697 10.4544C3.96733 13.2248 4.34241 15.9158 5.1183 17.3168L3.40204 18.284Z" fill="#8A6E4E"/>
</svg>
